HIERARCHY
ROOT Hips
{
 OFFSET 0.000000 0.000000 0.000000
 CHANNELS 6 Xposition Yposition Zposition Yrotation Xrotation Zrotation
 JOINT Chest
 {
  OFFSET 0.000000 9.585900 0.002600
  CHANNELS 3 Yrotation Xrotation Zrotation
  JOINT Chest2
  {
   OFFSET 0.000000 9.601200 -0.005300
   CHANNELS 3 Yrotation Xrotation Zrotation
   JOINT Chest3
   {
    OFFSET 0.000000 9.561800 0.000000
    CHANNELS 3 Yrotation Xrotation Zrotation
    JOINT Chest4
    {
     OFFSET 0.000000 9.552100 0.000000
     CHANNELS 3 Yrotation Xrotation Zrotation
     JOINT Neck
     {
      OFFSET 0.000000 14.453000 0.000000
      CHANNELS 3 Yrotation Xrotation Zrotation
      JOINT Head
      {
       OFFSET 0.000000 8.936500 -0.011300
       CHANNELS 3 Yrotation Xrotation Zrotation
       End Site
       {
        OFFSET 0.000000 17.073600 -0.006000
       }
      }
     }
     JOINT RightCollar
     {
      OFFSET -2.921100 9.558500 0.000000
      CHANNELS 3 Yrotation Xrotation Zrotation
      JOINT RightShoulder
      {
       OFFSET -13.519700 0.000000 0.000000
       CHANNELS 3 Yrotation Xrotation Zrotation
       JOINT RightElbow
       {
        OFFSET 0.000000 -29.696600 0.000000
        CHANNELS 3 Yrotation Xrotation Zrotation
        JOINT RightWrist
        {
         OFFSET 0.000000 -24.004700 0.000000
         CHANNELS 3 Yrotation Xrotation Zrotation
         End Site
         {
          OFFSET 0.000000 -17.728500 0.000000
         }
        }
       }
      }
     }
     JOINT LeftCollar
     {
      OFFSET 2.921100 9.558500 0.000000
      CHANNELS 3 Yrotation Xrotation Zrotation
      JOINT LeftShoulder
      {
       OFFSET 13.519700 0.000000 0.000000
       CHANNELS 3 Yrotation Xrotation Zrotation
       JOINT LeftElbow
       {
        OFFSET 0.000000 -29.696600 0.000000
        CHANNELS 3 Yrotation Xrotation Zrotation
        JOINT LeftWrist
        {
         OFFSET 0.000000 -24.004700 0.000000
         CHANNELS 3 Yrotation Xrotation Zrotation
         End Site
         {
          OFFSET 0.000000 -17.728500 0.000000
         }
        }
       }
      }
     }
    }
   }
  }
 }
 JOINT RightHip
 {
  OFFSET -7.771700 -0.012900 -0.001300
  CHANNELS 3 Yrotation Xrotation Zrotation
  JOINT RightKnee
  {
   OFFSET 0.000000 -40.869800 0.001200
   CHANNELS 3 Yrotation Xrotation Zrotation
   JOINT RightAnkle
   {
    OFFSET 0.000000 -39.717900 0.002100
    CHANNELS 3 Yrotation Xrotation Zrotation
    JOINT RightToe
    {
     OFFSET 0.000000 -4.965400 11.033500
     CHANNELS 3 Yrotation Xrotation Zrotation
     End Site
     {
      OFFSET 0.000000 -1.423100 5.872300
     }
    }
   }
  }
 }
 JOINT LeftHip
 {
  OFFSET 7.771700 -0.012900 -0.001300
  CHANNELS 3 Yrotation Xrotation Zrotation
  JOINT LeftKnee
  {
   OFFSET 0.000000 -40.869800 0.001200
   CHANNELS 3 Yrotation Xrotation Zrotation
   JOINT LeftAnkle
   {
    OFFSET 0.000000 -39.717900 0.002100
    CHANNELS 3 Yrotation Xrotation Zrotation
    JOINT LeftToe
    {
     OFFSET 0.000000 -4.965400 11.033500
     CHANNELS 3 Yrotation Xrotation Zrotation
     End Site
     {
      OFFSET 0.000000 -1.423100 5.872300
     }
    }
   }
  }
 }
}
MOTION
Frames: 6
Frame Time: 0.008333
-239.843443 57.996218 142.135011 177.255097 -30.343833 -1.854021 2.705905 19.311645 3.648974 0.273129 2.369941 0.376662 0.466980 3.902382 0.627498 2.285374 16.661518 2.974083 1.242006 13.643024 -0.740696 2.538424 -10.494327 -1.851842 3.639869 -0.427213 -0.592927 -9.544490 -33.840749 -7.968905 -121.183937 -33.081981 87.722796 -9.896007 -22.910254 -53.646836 -7.304330 -5.632908 -4.292523 3.174122 -14.704615 4.762081 147.450930 -81.366929 177.372319 -10.525142 1.534161 11.760765 5.862969 -43.642224 -1.390045 -9.581691 67.814892 -14.287915 1.293183 18.509396 5.827190 -0.509568 -12.423170 4.501233 -8.136243 -43.185297 3.985516 30.495588 69.175633 31.296462 -14.351884 4.537069 -4.697476 0.030668 -0.080346 0.053335
-239.844541 58.000455 142.122477 177.261076 -30.308224 -1.830702 2.706205 19.291381 3.625705 0.274552 2.370211 0.376862 0.496699 3.923135 0.633066 2.294893 16.656712 2.975026 1.110260 13.558936 -0.729804 2.286639 -10.645775 -1.787455 3.623132 -0.444023 -0.580366 -9.560601 -33.852589 -7.973172 -121.170220 -33.062901 87.752586 -9.885920 -22.908658 -53.653927 -7.330170 -5.656241 -4.275937 3.169950 -14.709277 4.785517 147.716635 -81.360858 177.125321 -10.501622 1.527169 11.759356 5.801021 -43.670697 -1.392024 -9.572019 67.821620 -14.312770 1.303579 18.484606 5.815960 -0.520503 -12.412066 4.496450 -8.117222 -43.222925 3.958365 30.522322 69.182834 31.310219 -14.351133 4.525730 -4.679567 0.013330 -0.095955 0.038139
-239.843361 58.005819 142.109758 177.264835 -30.283888 -1.804768 2.749342 19.312074 3.625979 0.256244 2.351125 0.372528 0.489514 3.914844 0.631332 2.363602 16.682425 2.991554 0.932373 13.467681 -0.730521 2.029401 -10.777250 -1.744406 3.568545 -0.477864 -0.570495 -9.520136 -33.853432 -7.984905 -121.213094 -33.064344 87.797562 -9.903305 -22.871099 -53.626809 -7.383166 -5.690992 -4.257611 3.149214 -14.719224 4.806672 147.948638 -81.355704 176.908524 -10.493682 1.526842 11.764116 5.668537 -43.690352 -1.346377 -9.491362 67.830613 -14.314795 1.315747 18.463214 5.797464 -0.550177 -12.403784 4.498345 -8.076124 -43.249793 3.917374 30.525935 69.190977 31.315123 -14.351957 4.517183 -4.665094 0.002157 -0.099133 0.036025
-239.834463 58.011507 142.099113 177.290497 -30.259182 -1.817250 2.733542 19.294064 3.628335 0.279344 2.370184 0.377589 0.467766 3.895563 0.627354 2.412649 16.709884 3.010791 0.780682 13.400144 -0.746994 1.773429 -10.893461 -1.723133 3.550762 -0.495937 -0.568780 -9.520551 -33.866081 -7.991445 -121.211384 -33.056022 87.822006 -9.896892 -22.869593 -53.621757 -7.389852 -5.709430 -4.249427 3.110493 -14.733111 4.809320 148.249272 -81.356551 176.621608 -10.488184 1.530842 11.772656 5.572023 -43.715241 -1.310328 -9.353487 67.866606 -14.168429 1.204882 18.427913 5.672825 -0.504785 -12.388987 4.535958 -8.078390 -43.271534 3.912343 30.507658 69.195598 31.307217 -14.337282 4.507753 -4.658993 -0.040072 -0.106425 0.028755
-239.822994 58.015671 142.093509 177.309959 -30.214418 -1.820793 2.740296 19.276331 3.641818 0.281108 2.370766 0.378372 0.470837 3.896448 0.628634 2.398311 16.695904 3.006599 0.658403 13.361191 -0.768353 1.525196 -10.997709 -1.722930 3.567419 -0.492195 -0.563569 -9.518203 -33.878127 -7.999407 -121.212503 -33.049814 87.845457 -9.895205 -22.870743 -53.616051 -7.376881 -5.712223 -4.243230 3.085575 -14.741867 4.813136 148.347379 -81.350173 176.527879 -10.473177 1.529261 11.773333 5.526097 -43.762180 -1.307462 -9.051756 67.904492 -13.850598 1.073543 18.432525 5.505758 -0.509814 -12.400388 4.636949 -8.065622 -43.312770 3.901497 30.472819 69.198907 31.286202 -14.318574 4.494725 -4.650844 -0.052459 -0.107415 0.019778
-239.806677 58.022065 142.086901 177.307885 -30.194925 -1.818412 2.778883 19.305584 3.680092 0.268557 2.348883 0.364385 0.488550 3.924154 0.646385 2.366209 16.655465 2.983953 0.589814 13.335019 -0.783555 1.235548 -11.095803 -1.742085 3.586753 -0.489363 -0.558552 -9.530151 -33.892872 -8.008804 -121.214451 -33.047065 87.857582 -9.909832 -22.853463 -53.601353 -7.368047 -5.715976 -4.233332 3.077903 -14.746088 4.864220 148.147073 -81.312027 176.725798 -10.497016 1.538988 11.781168 5.493186 -43.785639 -1.290598 -8.700568 67.932490 -13.490428 0.951477 18.477830 5.357052 -0.466352 -12.446626 4.716003 -8.039768 -43.332621 3.898193 30.503568 69.207140 31.311356 -14.297178 4.484035 -4.612647 -0.094318 -0.116993 -0.003025
